<svg width="24" height="24" viewBox="0 0 24 24" fill="none" xmlns="http://www.w3.org/2000/svg">
<path fill-rule="evenodd" clip-rule="evenodd" d="M12 3C7.02944 3 3 7.02944 3 12C3 16.9706 7.02944 21 12 21C16.9706 21 21 16.9706 21 12C21 7.02944 16.9706 3 12 3ZM2 12C2 6.47715 6.47715 2 12 2C17.5228 2 22 6.47715 22 12C22 17.5228 17.5228 22 12 22C6.47715 22 2 17.5228 2 12Z" fill="#030303"/>
<path fill-rule="evenodd" clip-rule="evenodd" d="M17.5577 5.4973L9.76348 9.9973L6.58103 18.7629L14.4955 14.1935L17.5577 5.4973ZM12.746 13.386C13.4977 13.0378 13.8249 12.1462 13.4767 11.3945C13.1286 10.6428 12.2369 10.3157 11.4852 10.6638C10.7335 11.012 10.4064 11.9036 10.7545 12.6553C11.1027 13.407 11.9943 13.7342 12.746 13.386Z" fill="#030303"/>
</svg>
