<svg width="104" height="22" viewBox="0 0 104 22" fill="none" xmlns="http://www.w3.org/2000/svg">
<path d="M26.4354 6.90423C26.1243 5.90547 25.2107 5.12058 24.0483 4.85323C21.9436 4.36816 13.5 4.36816 13.5 4.36816C13.5 4.36816 5.05638 4.36816 2.95159 4.85323C1.78919 5.12058 0.875699 5.90547 0.564537 6.90423C1.68987e-07 8.7127 0 12.4882 0 12.4882C0 12.4882 1.68987e-07 16.2636 0.564537 18.0721C0.875699 19.0709 1.78919 19.8558 2.95159 20.1231C5.05638 20.6082 13.5 20.6082 13.5 20.6082C13.5 20.6082 21.9436 20.6082 24.0483 20.1231C25.2107 19.8558 26.1243 19.0709 26.4354 18.0721C27 16.2636 27 12.4882 27 12.4882C27 12.4882 26.9977 8.7127 26.4354 6.90423Z" fill="#FF0000"/>
<path d="M10.918 15.9677L18.0105 12.4883L10.918 9.00879V15.9677Z" fill="white"/>
<path d="M35.0615 5.35938H38.1338L41.625 16.2412L45.1162 5.35938H48.1885L42.8711 21H40.3789L35.0615 5.35938ZM33.1924 5.35938H36.3721L36.9629 17.3477V21H33.1924V5.35938ZM46.8779 5.35938H50.0684V21H46.2871V17.3477L46.8779 5.35938ZM59.7363 5.35938V21H55.9658V5.35938H59.7363ZM64.4414 5.35938V8.27051H51.3682V5.35938H64.4414ZM74.5283 5.35938H78.2988V15.5752C78.2988 16.7926 78.0446 17.8239 77.5361 18.6689C77.0277 19.5068 76.3151 20.1406 75.3984 20.5703C74.4818 21 73.404 21.2148 72.165 21.2148C70.9404 21.2148 69.8626 21 68.9316 20.5703C68.0078 20.1406 67.2845 19.5068 66.7617 18.6689C66.2461 17.8239 65.9883 16.7926 65.9883 15.5752V5.35938H69.7695V15.5752C69.7695 16.2197 69.8626 16.7461 70.0488 17.1543C70.235 17.5553 70.5072 17.849 70.8652 18.0352C71.2233 18.2214 71.6566 18.3145 72.165 18.3145C72.6807 18.3145 73.1139 18.2214 73.4648 18.0352C73.8158 17.849 74.0807 17.5553 74.2598 17.1543C74.4388 16.7461 74.5283 16.2197 74.5283 15.5752V5.35938ZM87.0537 14.3506H83.0254L83.0039 11.8799H86.2695C86.8568 11.8799 87.3258 11.8154 87.6768 11.6865C88.0277 11.5505 88.2819 11.3535 88.4395 11.0957C88.6042 10.8379 88.6865 10.5156 88.6865 10.1289C88.6865 9.6849 88.6042 9.32682 88.4395 9.05469C88.2747 8.78255 88.0133 8.58561 87.6553 8.46387C87.3044 8.33496 86.8496 8.27051 86.291 8.27051H84.4434V21H80.6729V5.35938H86.291C87.2578 5.35938 88.1208 5.44889 88.8799 5.62793C89.639 5.7998 90.2835 6.06478 90.8135 6.42285C91.3506 6.78092 91.7588 7.2321 92.0381 7.77637C92.3174 8.31348 92.457 8.94727 92.457 9.67773C92.457 10.3151 92.321 10.9131 92.0488 11.4717C91.7767 12.0303 91.3219 12.485 90.6846 12.8359C90.0544 13.1797 89.1914 13.3587 88.0957 13.373L87.0537 14.3506ZM86.9033 21H82.1123L83.4014 18.0996H86.9033C87.4189 18.0996 87.8307 18.0208 88.1387 17.8633C88.4538 17.6986 88.6794 17.4837 88.8154 17.2188C88.9587 16.9466 89.0303 16.6458 89.0303 16.3164C89.0303 15.9154 88.9622 15.568 88.8262 15.2744C88.6973 14.9808 88.4896 14.7552 88.2031 14.5977C87.9167 14.4329 87.5335 14.3506 87.0537 14.3506H83.8848L83.9062 11.8799H87.6982L88.5791 12.8682C89.6247 12.8252 90.4518 12.972 91.0605 13.3086C91.6764 13.6452 92.1169 14.0892 92.3818 14.6406C92.6468 15.1921 92.7793 15.7686 92.7793 16.3701C92.7793 17.3942 92.5573 18.25 92.1133 18.9375C91.6764 19.625 91.0212 20.1406 90.1475 20.4844C89.2738 20.8281 88.1924 21 86.9033 21Z" fill="#030303"/>
</svg>
