category<svg width="24" height="24" viewBox="0 0 24 24" fill="none" xmlns="http://www.w3.org/2000/svg">
<path fill-rule="evenodd" clip-rule="evenodd" d="M9.50753 2.4178C9.54771 2.17671 9.75631 2 10.0007 2H14.0007C14.2451 2 14.4537 2.17671 14.4939 2.4178L14.9407 5.09828C15.501 5.33725 16.0261 5.64235 16.5063 6.00368L19.0526 5.04975C19.2815 4.964 19.5388 5.0563 19.661 5.26797L21.661 8.73208C21.7832 8.94375 21.7345 9.21275 21.5458 9.3681L19.4468 11.0961C19.4824 11.3926 19.5007 11.6943 19.5007 12C19.5007 12.3058 19.4824 12.6075 19.4468 12.904L21.5458 14.632C21.7345 14.7873 21.7832 15.0563 21.661 15.268L19.661 18.7321C19.5388 18.9437 19.2814 19.036 19.0526 18.9503L16.5063 17.9964C16.0261 18.3577 15.501 18.6628 14.9407 18.9017L14.4939 21.5822C14.4537 21.8233 14.2451 22 14.0007 22H10.0007C9.75631 22 9.54771 21.8233 9.50753 21.5822L9.06079 18.9017C8.50046 18.6628 7.97532 18.3576 7.49516 17.9963L4.94888 18.9502C4.71999 19.036 4.46266 18.9437 4.34045 18.732L2.34045 15.2679C2.21824 15.0563 2.26698 14.7872 2.45568 14.6319L4.5547 12.9039C4.51905 12.6074 4.50073 12.3057 4.50073 12C4.50073 11.6942 4.51905 11.3925 4.5547 11.096L2.4557 9.36805C2.267 9.2127 2.21827 8.9437 2.34048 8.73203L4.34048 5.26792C4.46269 5.05625 4.72002 4.96396 4.9489 5.0497L7.49521 6.00364C7.97536 5.64233 8.50048 5.33724 9.06079 5.09828L9.50753 2.4178ZM10.4243 3L10.0011 5.53908C9.97191 5.71427 9.85197 5.86083 9.68602 5.92409C9.03345 6.17285 8.43098 6.52391 7.89828 6.9579C7.76049 7.07016 7.57348 7.10083 7.40705 7.03849L4.99472 6.13474L3.41828 8.86521L5.40637 10.5019C5.54334 10.6146 5.6103 10.7915 5.58233 10.9667C5.52866 11.3029 5.50073 11.648 5.50073 12C5.50073 12.352 5.52866 12.697 5.58232 13.0332C5.61029 13.2084 5.54333 13.3853 5.40636 13.4981L3.41826 15.1347L4.9947 17.8652L7.407 16.9615C7.57343 16.8991 7.76045 16.9298 7.89823 17.0421C8.43094 17.4761 9.03343 17.8271 9.68602 18.0759C9.85197 18.1392 9.97191 18.2857 10.0011 18.4609L10.4243 21H13.5772L14.0003 18.4609C14.0295 18.2857 14.1495 18.1392 14.3154 18.0759C14.968 17.8272 15.5705 17.4761 16.1032 17.0421C16.241 16.9298 16.428 16.8992 16.5944 16.9615L19.0067 17.8653L20.5832 15.1348L18.5951 13.4981C18.4581 13.3854 18.3912 13.2085 18.4191 13.0333C18.4728 12.6971 18.5007 12.352 18.5007 12C18.5007 11.648 18.4728 11.303 18.4191 10.9668C18.3912 10.7916 18.4581 10.6147 18.5951 10.5019L20.5832 8.86526L19.0068 6.13479L16.5945 7.03852C16.428 7.10087 16.241 7.07019 16.1032 6.95794C15.5705 6.52393 14.968 6.17286 14.3154 5.92409C14.1495 5.86083 14.0295 5.71427 14.0003 5.53908L13.5772 3H10.4243Z" fill="#030303"/>
<path fill-rule="evenodd" clip-rule="evenodd" d="M12 9.5C10.6193 9.5 9.5 10.6193 9.5 12C9.5 13.3807 10.6193 14.5 12 14.5C13.3807 14.5 14.5 13.3807 14.5 12C14.5 10.6193 13.3807 9.5 12 9.5ZM8.5 12C8.5 10.067 10.067 8.5 12 8.5C13.933 8.5 15.5 10.067 15.5 12C15.5 13.933 13.933 15.5 12 15.5C10.067 15.5 8.5 13.933 8.5 12Z" fill="#030303"/>
</svg>
