<svg width="24" height="24" viewBox="0 0 24 24" fill="none" xmlns="http://www.w3.org/2000/svg">
<path fill-rule="evenodd" clip-rule="evenodd" d="M6.05534 7.24555C4.14217 8.35012 3.48667 10.7965 4.59124 12.7097C4.96563 13.3581 5.49457 13.8622 6.10428 14.2021L5.80536 14.3747C3.89219 15.4793 3.23668 17.9257 4.34125 19.8388C5.44582 21.752 7.89218 22.4075 9.80536 21.3029L17.5996 16.8029C19.5128 15.6984 20.1683 13.252 19.0637 11.3388C18.6893 10.6904 18.1604 10.1863 17.5506 9.84634L17.8496 9.67375C19.7627 8.56918 20.4182 6.12282 19.3137 4.20965C18.2091 2.29648 15.7627 1.64098 13.8496 2.74555L6.05534 7.24555ZM10.4997 14.5979L14.9997 11.9999L10.4997 9.40178L10.4997 14.5979Z" fill="#FF0000"/>
<path fill-rule="evenodd" clip-rule="evenodd" d="M10.5 14.5985L15 12.0004L10.5 9.40234L10.5 14.5985Z" fill="white"/>
</svg>
