<svg width="33" height="33" viewBox="0 0 33 33" fill="none" xmlns="http://www.w3.org/2000/svg">
<path fill-rule="evenodd" clip-rule="evenodd" d="M7.5805 11.211C5.39401 12.6249 4.64487 15.7562 5.90724 18.2051C6.61346 19.5751 7.70954 20.4995 8.88484 20.824C7.26645 22.3997 6.81701 25.0873 7.92934 27.2451C9.1917 29.694 11.9875 30.533 14.174 29.1192L25.0584 22.081C27.2449 20.6672 27.994 17.5358 26.7316 15.087C26.0349 13.7353 24.8709 12.874 23.6001 12.6114C25.343 11.0596 25.8564 8.27161 24.7095 6.04688C23.4472 3.59802 20.6513 2.75898 18.4649 4.17283L7.5805 11.211ZM20.4888 13.2117L20.4882 13.2106L22.4649 11.9324C24.1047 10.872 24.6666 8.52352 23.7198 6.68688C22.773 4.85024 20.6761 4.22096 19.0363 5.28134L8.15192 12.3195C6.51206 13.3799 5.95021 15.7284 6.89698 17.5651C7.84375 19.4017 9.60101 20.2506 11.0856 19.2906L11.0862 19.2917L11.0872 19.2911L11.6587 20.3996L10.174 21.3596C8.53416 22.42 7.97231 24.7685 8.91908 26.6051C9.86585 28.4418 11.9627 29.0711 13.6026 28.0107L24.487 20.9725C26.1268 19.9121 26.6887 17.5636 25.7419 15.727C24.7951 13.8903 22.6982 13.261 21.0584 14.3214L20.487 13.2129C20.4876 13.2125 20.4882 13.2121 20.4888 13.2117Z" fill="black"/>
<path d="M14.1315 14.886C14.1315 14.3371 14.6899 13.976 15.1143 14.2504L19.4231 17.0366C19.8302 17.2998 19.8084 17.956 19.3834 18.2308L15.0747 21.0169C14.6497 21.2917 14.1315 20.9848 14.1315 20.4583L14.1315 14.886Z" fill="black"/>
</svg>
